<svg xmlns="http://www.w3.org/2000/svg" version="1.1" xmlns:xlink="http://www.w3.org/1999/xlink" xmlns:svgjs="http://svgjs.com/svgjs" width="1440" height="560" preserveAspectRatio="none" viewBox="0 0 1440 560"><g mask="url(&quot;#SvgjsMask1030&quot;)" fill="none"><rect width="1440" height="560" x="0" y="0" fill="rgba(31, 41, 55, 1)"></rect><path d="M1537.61 431.77 L1550.1999999999998 489.23L1581.4226837452288 422.982316254771z" fill="#d3b714"></path><rect width="122" height="122" clip-path="url(&quot;#SvgjsClipPath1031&quot;)" x="101.95" y="434.36" fill="url(#SvgjsPattern1032)" transform="rotate(277.29, 162.95, 495.36)"></rect><circle r="55.315910457178795" cx="469.78" cy="486.38" fill="#037b0b"></circle><path d="M541.2700000000001 560.58 L662.0300000000001 639.74L697.0743576683577 504.7356423316424z" fill="#037b0b"></path><rect width="192" height="192" clip-path="url(&quot;#SvgjsClipPath1033&quot;)" x="306.97" y="214.9" fill="url(#SvgjsPattern1034)" transform="rotate(27.37, 402.97, 310.9)"></rect><path d="M1000.2 237.11a5.6 5.6 0 1 0 8.38 7.43 5.6 5.6 0 1 0-8.38-7.43zM1012.17 247.72a5.6 5.6 0 1 0 8.39 7.43 5.6 5.6 0 1 0-8.39-7.43zM1024.15 258.33a5.6 5.6 0 1 0 8.38 7.43 5.6 5.6 0 1 0-8.38-7.43zM1036.13 268.94a5.6 5.6 0 1 0 8.38 7.43 5.6 5.6 0 1 0-8.38-7.43zM965.64 227.86a5.6 5.6 0 1 0 8.38 7.43 5.6 5.6 0 1 0-8.38-7.43zM977.61 238.47a5.6 5.6 0 1 0 8.39 7.43 5.6 5.6 0 1 0-8.39-7.43zM989.59 249.09a5.6 5.6 0 1 0 8.38 7.42 5.6 5.6 0 1 0-8.38-7.42zM1001.56 259.7a5.6 5.6 0 1 0 8.39 7.42 5.6 5.6 0 1 0-8.39-7.42zM931.07 218.62a5.6 5.6 0 1 0 8.39 7.43 5.6 5.6 0 1 0-8.39-7.43zM943.05 229.23a5.6 5.6 0 1 0 8.38 7.43 5.6 5.6 0 1 0-8.38-7.43zM955.03 239.84a5.6 5.6 0 1 0 8.38 7.43 5.6 5.6 0 1 0-8.38-7.43zM967 250.45a5.6 5.6 0 1 0 8.38 7.43 5.6 5.6 0 1 0-8.38-7.43z" fill="#037b0b"></path><path d="M663.79 499.38L672.24 509.01 664.7 519.36 673.15 528.99 665.62 539.34 674.06 548.96 666.53 559.32M655.8 499.75L664.24 509.37 656.71 519.73 665.16 529.35 657.62 539.71 666.07 549.33 658.54 559.69M647.8 500.11L656.25 509.74 648.72 520.09 657.17 529.72 649.63 540.07 658.08 549.7 650.55 560.05" stroke="#d3b714" stroke-width="1" stroke-dasharray="3, 2"></path><path d="M1247.92 322.91L1235.73 318.98 1236.89 306.23 1224.7 302.3 1225.86 289.55 1213.67 285.62 1214.83 272.86" stroke="#e73635" stroke-width="1" stroke-dasharray="3, 2"></path><path d="M203.36 358.87 L244.09 334.64L200.3085287332146 323.33852873321456z" fill="#e73635"></path><path d="M173.64 284.94L165.65 294.95 154.13 289.36 146.15 299.37 134.63 293.78 126.64 303.79 115.12 298.2" stroke="#037b0b" stroke-width="1.06"></path><path d="M945.52 441.27 L933.09 540.9200000000001L995.3772460124485 547.1672460124485z" stroke="#e73635" stroke-width="2.2" stroke-dasharray="3, 3"></path><path d="M1369.22 499.95a5.6 5.6 0 1 0 11.2 0.18 5.6 5.6 0 1 0-11.2-0.18zM1385.22 500.21a5.6 5.6 0 1 0 11.2 0.18 5.6 5.6 0 1 0-11.2-0.18zM1401.22 500.47a5.6 5.6 0 1 0 11.19 0.18 5.6 5.6 0 1 0-11.19-0.18zM1417.21 500.73a5.6 5.6 0 1 0 11.2 0.18 5.6 5.6 0 1 0-11.2-0.18z" stroke="#d3b714" stroke-width="1.82" stroke-dasharray="3, 3"></path></g><defs><mask id="SvgjsMask1030"><rect width="1440" height="560" fill="#ffffff"></rect></mask><pattern x="0" y="0" width="12.2" height="12.2" patternUnits="userSpaceOnUse" id="SvgjsPattern1032"><path d="M0 12.2L6.1 0L12.2 12.2" stroke="#d3b714" fill="none"></path></pattern><clipPath id="SvgjsClipPath1031"><circle r="30.5" cx="162.95" cy="495.36"></circle></clipPath><pattern x="0" y="0" width="192" height="6" patternUnits="userSpaceOnUse" id="SvgjsPattern1034"><rect width="192" height="3" x="0" y="0" fill="#037b0b"></rect><rect width="192" height="3" x="0" y="3" fill="rgba(0, 0, 0, 0)"></rect></pattern><clipPath id="SvgjsClipPath1033"><circle r="48" cx="402.97" cy="310.9"></circle></clipPath></defs></svg>